<?xml version="1.0" encoding="utf-8"?>
<!-- Generator: Adobe Illustrator 19.0.0, SVG Export Plug-In . SVG Version: 6.00 Build 0)  -->
<svg version="1.1" id="Layer_1" xmlns="http://www.w3.org/2000/svg" xmlns:xlink="http://www.w3.org/1999/xlink" x="0px" y="0px"
	 viewBox="0 0 395 96" style="enable-background:new 0 0 395 96;" xml:space="preserve">
<style type="text/css">
	.st0{fill:#ACDCD2;}
</style>
<g id="XMLID_2_">
	<path id="XMLID_3_" class="st0" d="M38.8,91.5V44h-0.4L27.1,79.1L16.1,44h-0.4v47.5H9.6V7.3l1.2,0l16.1,52h0.4l16.3-52l1.2,0v84.2
		H38.8z"/>
	<path id="XMLID_5_" class="st0" d="M59.8,91.5V7.3h6.9v84.2H59.8z"/>
	<path id="XMLID_7_" class="st0" d="M88.6,41.1h-0.4v50.4h-6.6V7.3l1.4,0l19.1,53.3h0.4V7.3h6.4v84.2l-1.5,0L88.6,41.1z"/>
	<path id="XMLID_9_" class="st0" d="M127.6,91.5V14.1h-9V7.3h24.5v6.8h-8.8v77.4H127.6z"/>
</g>
<g id="XMLID_11_">
	<path id="XMLID_12_" class="st0" d="M235,91h-6.8V6.2c4.8,0.1,8.9,1.1,12.2,2.8c3.3,1.7,6,4,8,6.9c2,2.8,3.5,6.1,4.4,9.9
		c0.9,3.7,1.4,7.7,1.4,11.9c0,4-0.4,7.6-1.2,10.8c-0.8,3.2-2,6.1-3.6,8.6c-1.6,2.6-3.6,5-6,7.1c-2.4,2.1-5.2,4.1-8.3,5.9V91z
		 M235,63.8c4.2-3,7.3-6.5,9.3-10.4c2-3.9,3-8.8,3-14.6c0-2.9-0.2-5.7-0.7-8.5c-0.5-2.8-1.2-5.4-2.2-7.6c-1-2.3-2.3-4.2-3.8-5.8
		c-1.6-1.6-3.4-2.7-5.6-3.2V63.8z"/>
	<path id="XMLID_15_" class="st0" d="M280.5,92.1c-2.7,0-5-0.6-6.9-1.9c-1.9-1.3-3.4-3.2-4.5-5.7c-1.2-2.5-2-5.5-2.5-9.1
		c-0.5-3.6-0.8-7.6-0.8-12.1V6.8h7v56.9c0,7.3,0.6,12.7,1.7,16.2c1.1,3.5,3.1,5.3,6,5.3c3,0,5-1.8,6.1-5.3c1.1-3.5,1.6-8.9,1.6-16.2
		V6.8h7v56.5c0,4.5-0.3,8.5-0.8,12.1c-0.5,3.6-1.3,6.6-2.4,9.1c-1.1,2.5-2.6,4.4-4.5,5.7C285.6,91.5,283.3,92.1,280.5,92.1z"/>
	<path id="XMLID_17_" class="st0" d="M324.2,92.1c-2.7,0-5-0.6-6.9-1.9c-1.9-1.3-3.4-3.2-4.5-5.7c-1.2-2.5-2-5.5-2.5-9.1
		c-0.5-3.6-0.8-7.6-0.8-12.1V6.8h7v56.9c0,7.3,0.6,12.7,1.7,16.2c1.1,3.5,3.1,5.3,6,5.3c3,0,5-1.8,6.1-5.3c1.1-3.5,1.6-8.9,1.6-16.2
		V6.8h7v56.5c0,4.5-0.3,8.5-0.8,12.1c-0.5,3.6-1.3,6.6-2.4,9.1c-1.1,2.5-2.6,4.4-4.5,5.7C329.3,91.5,327,92.1,324.2,92.1z"/>
	<path id="XMLID_19_" class="st0" d="M360.3,91h-6.8V6.2c4.8,0.1,8.9,1.1,12.2,2.8c3.3,1.7,6,4,8,6.9c2,2.8,3.5,6.1,4.4,9.9
		c0.9,3.7,1.4,7.7,1.4,11.9c0,6.9-1.2,12.7-3.7,17.3c-2.5,4.6-6,8.6-10.7,12.1c1.9,2.8,3.8,5.5,5.9,8c2.1,2.5,4.1,4.8,6.2,6.9
		c2.1,2.1,4.1,3.9,6,5.5c1.9,1.6,3.7,2.8,5.4,3.6h-11.3c-1.2-0.7-2.5-1.8-3.9-3.2c-1.4-1.4-2.8-3.1-4.3-5c-1.5-1.9-3-4-4.4-6.2
		c-1.5-2.2-2.8-4.4-4.1-6.6c0,0.1,0,0.1-0.1,0.1V91z M360.3,63.8c4.2-3,7.3-6.5,9.3-10.4c2-3.9,3-8.8,3-14.6c0-2.9-0.2-5.7-0.7-8.5
		c-0.5-2.8-1.2-5.4-2.2-7.6c-1-2.3-2.3-4.2-3.8-5.8c-1.6-1.6-3.4-2.7-5.6-3.2V63.8z"/>
</g>
<g id="XMLID_22_">
	<path id="XMLID_23_" class="st0" d="M193.4,90c-0.4-0.2-0.7-0.5-1.1-0.9c-0.4-0.4-0.8-0.8-1.4-1.4c-3,2.2-6.6,3.4-10.7,3.4
		c-1.4,0-2.7-0.3-4.1-0.8c-1.3-0.5-2.5-1.3-3.6-2.3c-1.1-1-1.9-2.3-2.6-3.9c-0.6-1.5-1-3.4-1-5.6c0-1.4,0.1-2.8,0.4-3.9
		c0.3-1.2,0.7-2.4,1.2-3.6c0.6-1.2,1.3-2.4,2.1-3.7c0.8-1.3,1.9-2.8,3.1-4.4c-2.1-4.8-3.8-9.8-5-15c-1.3-5.3-1.9-10.8-1.9-16.8
		c0-5,0.4-9.3,1.1-12.6c0.8-3.4,1.8-6.1,3-8.2c1.3-2.1,2.7-3.5,4.3-4.4c1.6-0.9,3.3-1.3,4.9-1.3c1.6,0,3.1,0.4,4.6,1.3
		c1.5,0.9,2.8,2.3,3.9,4.3c1.2,2,2.1,4.6,2.7,7.9c0.6,3.3,1,7.3,1,12.2c0,4.1-0.3,7.7-0.9,10.9c-0.6,3.1-1.4,6-2.5,8.6
		c-1.1,2.6-2.4,5-3.8,7.1c-1.5,2.2-3.1,4.3-4.9,6.5c2.4,5.5,5.6,10.7,9.4,15.3c1.7-3.4,2.7-8.4,3.2-14.9h5.7
		c-0.1,3.9-0.6,7.5-1.5,10.7c-0.9,3.2-2.2,6.1-3.8,8.5c1.4,1.5,2.9,2.9,4.5,4.1c1.5,1.2,2.9,2.2,4.2,2.9H193.4z M181.9,84.7
		c1.1,0,2.1-0.1,3-0.3c0.9-0.2,1.8-0.5,2.6-1l-0.2-0.4c-1.7-2.3-3.2-4.7-4.7-7.2c-1.5-2.5-2.9-5-4.3-7.5c-1,1.7-1.7,3.3-2.2,5
		c-0.4,1.7-0.6,3.5-0.6,5.4c0,1.7,0.5,3.1,1.6,4.3C178.1,84.1,179.7,84.7,181.9,84.7z M175.6,30.5c0,9.6,1.4,18.6,4.3,26.9
		c1.5-2.2,2.8-4.2,3.7-6.1c1-1.9,1.7-3.8,2.3-5.8c0.6-2,1-4.2,1.2-6.5c0.2-2.3,0.3-5.1,0.3-8.3c0-3.5-0.1-6.5-0.4-8.9
		c-0.3-2.4-0.6-4.3-1.1-5.8c-0.5-1.4-1-2.5-1.7-3.1c-0.6-0.6-1.4-1-2.2-1c-0.9,0-1.7,0.3-2.5,0.8c-0.8,0.5-1.5,1.4-2.1,2.8
		c-0.6,1.4-1.1,3.3-1.5,5.7C175.8,23.5,175.6,26.6,175.6,30.5z"/>
</g>
</svg>
