<?xml version="1.0" encoding="UTF-8"?>
<svg width="50px" height="50px" viewBox="0 0 50 50" version="1.1" xmlns="http://www.w3.org/2000/svg" xmlns:xlink="http://www.w3.org/1999/xlink">
    <!-- Generator: Sketch 47.1 (45422) - http://www.bohemiancoding.com/sketch -->
    <title>Call</title>
    <desc>Created with Sketch.</desc>
    <defs></defs>
    <g id="Icons" stroke="none" stroke-width="1" fill="none" fill-rule="evenodd">
        <g id="Call" fill-rule="nonzero" fill="#4A4A4A">
            <path d="M25,50 C11.1928813,50 0,38.8071188 0,25 C0,11.1928813 11.1928813,0 25,0 C38.8071188,0 50,11.1928813 50,25 C50,38.8071188 38.8071188,50 25,50 Z M18.5952381,23.5595238 L21.2142857,20.9404762 C21.547619,20.6071429 21.6428571,20.1428571 21.5119048,19.7261905 C21.0714286,18.3928571 20.8333333,16.9642857 20.8333333,15.4761905 C20.8333333,14.8214286 20.297619,14.2857143 19.6428571,14.2857143 L15.4761905,14.2857143 C14.8214286,14.2857143 14.2857143,14.8214286 14.2857143,15.4761905 C14.2857143,26.6547619 23.3452381,35.7142857 34.5238095,35.7142857 C35.1785714,35.7142857 35.7142857,35.1785714 35.7142857,34.5238095 L35.7142857,30.3690476 C35.7142857,29.7142857 35.1785714,29.1785714 34.5238095,29.1785714 C33.047619,29.1785714 31.6071429,28.9404762 30.2738095,28.5 C29.8571429,28.3571429 29.3809524,28.4642857 29.0595238,28.7857143 L26.4404762,31.4047619 C23.0714286,29.6785714 20.3095238,26.9285714 18.5952381,23.5595238 Z" id="Combined-Shape"></path>
        </g>
    </g>
</svg>