<?xml version="1.0" encoding="UTF-8"?>
<svg width="50px" height="50px" viewBox="0 0 50 50" version="1.1" xmlns="http://www.w3.org/2000/svg" xmlns:xlink="http://www.w3.org/1999/xlink">
    <!-- Generator: Sketch 47.1 (45422) - http://www.bohemiancoding.com/sketch -->
    <title>Chat</title>
    <desc>Created with Sketch.</desc>
    <defs></defs>
    <g id="Icons" stroke="none" stroke-width="1" fill="none" fill-rule="evenodd">
        <g id="Chat" fill-rule="nonzero" fill="#4A4A4A">
            <path d="M25,50 C11.1928813,50 0,38.8071188 0,25 C0,11.1928813 11.1928813,0 25,0 C38.8071188,0 50,11.1928813 50,25 C50,38.8071188 38.8071188,50 25,50 Z M36,18.8571429 L33.7142857,18.8571429 L33.7142857,29.1428571 L18.8571429,29.1428571 L18.8571429,31.4285714 C18.8571429,32.0571429 19.3714286,32.5714286 20,32.5714286 L32.5714286,32.5714286 L37.1428571,37.1428571 L37.1428571,20 C37.1428571,19.3714286 36.6285714,18.8571429 36,18.8571429 Z M31.4285714,25.7142857 L31.4285714,15.4285714 C31.4285714,14.8 30.9142857,14.2857143 30.2857143,14.2857143 L15.4285714,14.2857143 C14.8,14.2857143 14.2857143,14.8 14.2857143,15.4285714 L14.2857143,31.4285714 L18.8571429,26.8571429 L30.2857143,26.8571429 C30.9142857,26.8571429 31.4285714,26.3428571 31.4285714,25.7142857 Z" id="Combined-Shape"></path>
        </g>
    </g>
</svg>