<?xml version="1.0" encoding="UTF-8"?>
<svg width="50px" height="50px" viewBox="0 0 50 50" version="1.1" xmlns="http://www.w3.org/2000/svg" xmlns:xlink="http://www.w3.org/1999/xlink">
    <!-- Generator: Sketch 47.1 (45422) - http://www.bohemiancoding.com/sketch -->
    <title>Community</title>
    <desc>Created with Sketch.</desc>
    <defs></defs>
    <g id="Icons" stroke="none" stroke-width="1" fill="none" fill-rule="evenodd">
        <g id="Community" fill-rule="nonzero" fill="#4A4A4A">
            <path d="M25,0 C38.80625,0 50,11.19375 50,25 C50,38.80625 38.80625,50 25,50 C11.19375,50 0,38.80625 0,25 C0,11.19375 11.19375,0 25,0 Z M30,24.6428571 C31.7785714,24.6428571 33.2035714,23.2071429 33.2035714,21.4285714 C33.2035714,19.65 31.7785714,18.2142857 30,18.2142857 C28.2214286,18.2142857 26.7857143,19.65 26.7857143,21.4285714 C26.7857143,23.2071429 28.2214286,24.6428571 30,24.6428571 Z M21.4285714,24.6428571 C23.2071429,24.6428571 24.6321429,23.2071429 24.6321429,21.4285714 C24.6321429,19.65 23.2071429,18.2142857 21.4285714,18.2142857 C19.65,18.2142857 18.2142857,19.65 18.2142857,21.4285714 C18.2142857,23.2071429 19.65,24.6428571 21.4285714,24.6428571 Z M21.4285714,26.7857143 C18.9321429,26.7857143 13.9285714,28.0392857 13.9285714,30.5357143 L13.9285714,33.2142857 L28.9285714,33.2142857 L28.9285714,30.5357143 C28.9285714,28.0392857 23.925,26.7857143 21.4285714,26.7857143 Z M30,26.7857143 C29.6892857,26.7857143 29.3357143,26.8071429 28.9607143,26.8392857 C30.2035714,27.7392857 31.0714286,28.95 31.0714286,30.5357143 L31.0714286,33.2142857 L37.5,33.2142857 L37.5,30.5357143 C37.5,28.0392857 32.4964286,26.7857143 30,26.7857143 Z" id="Combined-Shape"></path>
        </g>
    </g>
</svg>