<?xml version="1.0" encoding="UTF-8"?>
<svg width="50px" height="50px" viewBox="0 0 50 50" version="1.1" xmlns="http://www.w3.org/2000/svg" xmlns:xlink="http://www.w3.org/1999/xlink">
    <!-- Generator: Sketch 47.1 (45422) - http://www.bohemiancoding.com/sketch -->
    <title>facebook</title>
    <desc>Created with Sketch.</desc>
    <defs></defs>
    <g id="Icons" stroke="none" stroke-width="1" fill="none" fill-rule="evenodd">
        <g id="facebook" fill-rule="nonzero" fill="#4A4A4A">
            <path d="M25,0 C11.19375,0 0,11.19375 0,25 C0,38.80625 11.19375,50 25,50 C38.80625,50 50,38.80625 50,25 C50,11.19375 38.80625,0 25,0 Z M31.25,16.6666667 L28.4375,16.6666667 C27.3166667,16.6666667 27.0833333,17.1270833 27.0833333,18.2875 L27.0833333,20.8333333 L31.25,20.8333333 L30.8145833,25 L27.0833333,25 L27.0833333,39.5833333 L20.8333333,39.5833333 L20.8333333,25 L16.6666667,25 L16.6666667,20.8333333 L20.8333333,20.8333333 L20.8333333,16.025 C20.8333333,12.3395833 22.7729167,10.4166667 27.14375,10.4166667 L31.25,10.4166667 L31.25,16.6666667 Z" id="Shape"></path>
        </g>
    </g>
</svg>