<?xml version="1.0" encoding="UTF-8"?>
<svg width="50px" height="50px" viewBox="0 0 50 50" version="1.1" xmlns="http://www.w3.org/2000/svg" xmlns:xlink="http://www.w3.org/1999/xlink">
    <!-- Generator: Sketch 47.1 (45422) - http://www.bohemiancoding.com/sketch -->
    <title>information</title>
    <desc>Created with Sketch.</desc>
    <defs></defs>
    <g id="Icons" stroke="none" stroke-width="1" fill="none" fill-rule="evenodd">
        <g id="information" fill-rule="nonzero" fill="#4A4A4A">
            <path d="M22.5,37.5 L27.5,37.5 L27.5,22.5 L22.5,22.5 L22.5,37.5 Z M25,0 C11.2,0 0,11.2 0,25 C0,38.8 11.2,50 25,50 C38.8,50 50,38.8 50,25 C50,11.2 38.8,0 25,0 Z M25,45 C13.975,45 5,36.025 5,25 C5,13.975 13.975,5 25,5 C36.025,5 45,13.975 45,25 C45,36.025 36.025,45 25,45 Z M22.5,17.5 L27.5,17.5 L27.5,12.5 L22.5,12.5 L22.5,17.5 Z" id="Shape"></path>
        </g>
    </g>
</svg>