<?xml version="1.0" encoding="UTF-8"?>
<svg width="50px" height="50px" viewBox="0 0 50 50" version="1.1" xmlns="http://www.w3.org/2000/svg" xmlns:xlink="http://www.w3.org/1999/xlink">
    <!-- Generator: Sketch 47.1 (45422) - http://www.bohemiancoding.com/sketch -->
    <title>instagram</title>
    <desc>Created with Sketch.</desc>
    <defs></defs>
    <g id="Icons" stroke="none" stroke-width="1" fill="none" fill-rule="evenodd">
        <g id="instagram" fill="#4A4A4A">
            <g id="Group">
                <path d="M25,50 C11.1928813,50 0,38.8071187 0,25 C0,11.1928813 11.1928813,0 25,0 C38.8071187,0 50,11.1928813 50,25 C50,38.8071187 38.8071187,50 25,50 Z M25.7098073,11.4285714 C21.8312358,11.4285714 21.344898,11.4450113 19.8216553,11.5145125 C18.3015873,11.5838435 17.2634354,11.8252834 16.3550454,12.1783447 C15.4159297,12.543254 14.6195011,13.031576 13.8255102,13.8255102 C13.031576,14.6195011 12.543254,15.4159297 12.1783447,16.3550454 C11.8252834,17.2634354 11.5838435,18.3015873 11.5145125,19.8216553 C11.4450113,21.344898 11.4285714,21.8312358 11.4285714,25.7098073 C11.4285714,29.588322 11.4450113,30.0746599 11.5145125,31.5979025 C11.5838435,33.1179705 11.8252834,34.1561224 12.1783447,35.0645125 C12.543254,36.0036281 13.031576,36.8000567 13.8255102,37.5940476 C14.6195011,38.3879819 15.4159297,38.8763039 16.3550454,39.2412698 C17.2634354,39.5942744 18.3015873,39.8357143 19.8216553,39.9050454 C21.344898,39.9745465 21.8312358,39.9909864 25.7098073,39.9909864 C29.588322,39.9909864 30.0746599,39.9745465 31.5979025,39.9050454 C33.1179705,39.8357143 34.1561224,39.5942744 35.0645125,39.2412698 C36.0036281,38.8763039 36.8000567,38.3879819 37.5940476,37.5940476 C38.3879819,36.8000567 38.8763039,36.0036281 39.2412698,35.0645125 C39.5942744,34.1561224 39.8357143,33.1179705 39.9050454,31.5979025 C39.9745465,30.0746599 39.9909864,29.588322 39.9909864,25.7098073 C39.9909864,21.8312358 39.9745465,21.344898 39.9050454,19.8216553 C39.8357143,18.3015873 39.5942744,17.2634354 39.2412698,16.3550454 C38.8763039,15.4159297 38.3879819,14.6195011 37.5940476,13.8255102 C36.8000567,13.031576 36.0036281,12.543254 35.0645125,12.1783447 C34.1561224,11.8252834 33.1179705,11.5838435 31.5979025,11.5145125 C30.0746599,11.4450113 29.588322,11.4285714 25.7098073,11.4285714 Z" id="Combined-Shape"></path>
                <path d="M25.7098073,14.0017574 C29.5230159,14.0017574 29.9747166,14.0163265 31.4806122,14.085034 C32.8730159,14.1485261 33.629195,14.3811791 34.1324263,14.5767574 C34.7990363,14.8358277 35.2747732,15.1452948 35.7744898,15.645068 C36.274263,16.1447846 36.5837302,16.6205215 36.8428005,17.2871315 C37.0383787,17.7903628 37.2710317,18.546542 37.3345238,19.9389456 C37.4032313,21.4448413 37.4178005,21.896542 37.4178005,25.7098073 C37.4178005,29.5230159 37.4032313,29.9747166 37.3345238,31.4806122 C37.2710317,32.8730159 37.0383787,33.629195 36.8428005,34.1324263 C36.5837302,34.7990363 36.274263,35.2747732 35.7744898,35.7744898 C35.2747732,36.274263 34.7990363,36.5837302 34.1324263,36.8428005 C33.629195,37.0383787 32.8730159,37.2710317 31.4806122,37.3345238 C29.9749433,37.4032313 29.5232993,37.4178005 25.7098073,37.4178005 C21.8962585,37.4178005 21.4446712,37.4032313 19.9389456,37.3345238 C18.546542,37.2710317 17.7903628,37.0383787 17.2871315,36.8428005 C16.6205215,36.5837302 16.1447846,36.274263 15.645068,35.7744898 C15.1453515,35.2747732 14.8358277,34.7990363 14.5767574,34.1324263 C14.3811791,33.629195 14.1485261,32.8730159 14.085034,31.4806122 C14.0163265,29.9747166 14.0017574,29.5230159 14.0017574,25.7098073 C14.0017574,21.896542 14.0163265,21.4448413 14.085034,19.9389456 C14.1485261,18.546542 14.3811791,17.7903628 14.5767574,17.2871315 C14.8358277,16.6205215 15.1452948,16.1447846 15.645068,15.645068 C16.1447846,15.1452948 16.6205215,14.8358277 17.2871315,14.5767574 C17.7903628,14.3811791 18.546542,14.1485261 19.9389456,14.085034 C21.4448413,14.0163265 21.896542,14.0017574 25.7098073,14.0017574 Z M25.7143142,18.3549784 C21.6498264,18.3549784 18.3549784,21.6498264 18.3549784,25.7143142 C18.3549784,29.7787451 21.6498264,33.0735931 25.7143142,33.0735931 C29.7787451,33.0735931 33.0735931,29.7787451 33.0735931,25.7143142 C33.0735931,21.6498264 29.7787451,18.3549784 25.7143142,18.3549784 Z M35.0937951,18.0664067 C35.0937951,17.1100605 34.3185109,16.3347763 33.3621647,16.3347763 C32.4058758,16.3347763 31.6305916,17.1100605 31.6305916,18.0664067 C31.6305916,19.0227529 32.4058758,19.7979798 33.3621647,19.7979798 C34.3185109,19.7979798 35.0937951,19.0227529 35.0937951,18.0664067 Z" id="Combined-Shape"></path>
                <path d="M25.7143142,30.491383 C23.0759554,30.491383 20.9371885,28.352616 20.9371885,25.7143142 C20.9371885,23.0759554 23.0759554,20.9371885 25.7143142,20.9371885 C28.352616,20.9371885 30.491383,23.0759554 30.491383,25.7143142 C30.491383,28.352616 28.352616,30.491383 25.7143142,30.491383 Z" id="Path"></path>
            </g>
        </g>
    </g>
</svg>