<?xml version="1.0" encoding="UTF-8"?>
<svg width="50px" height="50px" viewBox="0 0 50 50" version="1.1" xmlns="http://www.w3.org/2000/svg" xmlns:xlink="http://www.w3.org/1999/xlink">
    <!-- Generator: Sketch 47.1 (45422) - http://www.bohemiancoding.com/sketch -->
    <title>Nummberbehoud</title>
    <desc>Created with Sketch.</desc>
    <defs></defs>
    <g id="Icons" stroke="none" stroke-width="1" fill="none" fill-rule="evenodd">
        <g id="Nummberbehoud" fill-rule="nonzero" fill="#000000">
            <path d="M45.8333333,6 L4.16666667,6 C1.875,6 0,7.875 0,10.1666667 L0,39.3333333 C0,41.625 1.875,43.5 4.16666667,43.5 L45.8333333,43.5 C48.125,43.5 49.9791667,41.625 49.9791667,39.3333333 L50,10.1666667 C50,7.875 48.125,6 45.8333333,6 Z M16.6666667,12.25 C20.125,12.25 22.9166667,15.0416667 22.9166667,18.5 C22.9166667,21.9583333 20.125,24.75 16.6666667,24.75 C13.2083333,24.75 10.4166667,21.9583333 10.4166667,18.5 C10.4166667,15.0416667 13.2083333,12.25 16.6666667,12.25 Z M29.1666667,37.25 L4.16666667,37.25 L4.16666667,35.1666667 C4.16666667,31 12.5,28.7083333 16.6666667,28.7083333 C20.8333333,28.7083333 29.1666667,31 29.1666667,35.1666667 L29.1666667,37.25 Z M37.1875,28.9166667 L40.6041667,28.9166667 L43.75,33.0833333 L39.6041667,37.2291667 C36.875,35.1875 34.8541667,32.2708333 33.9166667,28.9166667 C33.5416667,27.5833333 33.3333333,26.1875 33.3333333,24.75 C33.3333333,23.3125 33.5416667,21.9166667 33.9166667,20.5833333 C34.8541667,17.2083333 36.875,14.3125 39.6041667,12.2708333 L43.75,16.4166667 L40.6041667,20.5833333 L37.1875,20.5833333 C36.7291667,21.8958333 36.4583333,23.2916667 36.4583333,24.75 C36.4583333,26.2083333 36.7291667,27.6041667 37.1875,28.9166667 L37.1875,28.9166667 Z" id="Shape"></path>
        </g>
    </g>
</svg>