<?xml version="1.0" encoding="UTF-8"?>
<svg width="50px" height="50px" viewBox="0 0 50 50" version="1.1" xmlns="http://www.w3.org/2000/svg" xmlns:xlink="http://www.w3.org/1999/xlink">
    <!-- Generator: Sketch 47.1 (45422) - http://www.bohemiancoding.com/sketch -->
    <title>search</title>
    <desc>Created with Sketch.</desc>
    <defs></defs>
    <g id="Icons" stroke="none" stroke-width="1" fill="none" fill-rule="evenodd">
        <g id="search" fill-rule="nonzero" fill="#000000">
            <path d="M35.7347055,31.4465409 L33.4762722,31.4465409 L32.6758148,30.6746712 C35.4774157,27.4156661 37.1640938,23.184677 37.1640938,18.5820469 C37.1640938,8.31903945 28.8450543,0 18.5820469,0 C8.31903945,0 0,8.31903945 0,18.5820469 C0,28.8450543 8.31903945,37.1640938 18.5820469,37.1640938 C23.184677,37.1640938 27.4156661,35.4774157 30.6746712,32.6758148 L31.4465409,33.4762722 L31.4465409,35.7347055 L45.7404231,50 L50,45.7404231 L35.7347055,31.4465409 Z M18.5820469,31.4465409 C11.4636935,31.4465409 5.71755289,25.7004002 5.71755289,18.5820469 C5.71755289,11.4636935 11.4636935,5.71755289 18.5820469,5.71755289 C25.7004002,5.71755289 31.4465409,11.4636935 31.4465409,18.5820469 C31.4465409,25.7004002 25.7004002,31.4465409 18.5820469,31.4465409 Z" id="Shape"></path>
        </g>
    </g>
</svg>