<?xml version="1.0" encoding="UTF-8"?>
<svg width="50px" height="50px" viewBox="0 0 50 50" version="1.1" xmlns="http://www.w3.org/2000/svg" xmlns:xlink="http://www.w3.org/1999/xlink" style="background: #FFFFFF;">
    <!-- Generator: Sketch 47.1 (45422) - http://www.bohemiancoding.com/sketch -->
    <title>simonly</title>
    <desc>Created with Sketch.</desc>
    <defs></defs>
    <g id="Icons" stroke="none" stroke-width="1" fill="none" fill-rule="evenodd">
        <g id="simonly" fill-rule="nonzero" fill="#000000">
            <path d="M44.975,5 C44.975,2.25 42.75,0 40,0 L20,0 L5,15 L5,45 C5,47.75 7.25,50 10,50 L40.025,50 C42.775,50 45,47.75 45,45 L44.975,5 L44.975,5 Z M17.5,42.5 L12.5,42.5 L12.5,37.5 L17.5,37.5 L17.5,42.5 Z M37.5,42.5 L32.5,42.5 L32.5,37.5 L37.5,37.5 L37.5,42.5 Z M17.5,32.5 L12.5,32.5 L12.5,22.5 L17.5,22.5 L17.5,32.5 Z M27.5,42.5 L22.5,42.5 L22.5,32.5 L27.5,32.5 L27.5,42.5 Z M27.5,27.5 L22.5,27.5 L22.5,22.5 L27.5,22.5 L27.5,27.5 Z M37.5,32.5 L32.5,32.5 L32.5,22.5 L37.5,22.5 L37.5,32.5 Z" id="Shape" transform="translate(25.000000, 25.000000) rotate(90.000000) translate(-25.000000, -25.000000) "></path>
        </g>
    </g>
</svg>