<?xml version="1.0" encoding="UTF-8"?>
<svg width="50px" height="50px" viewBox="0 0 50 50" version="1.1" xmlns="http://www.w3.org/2000/svg" xmlns:xlink="http://www.w3.org/1999/xlink">
    <!-- Generator: Sketch 47.1 (45422) - http://www.bohemiancoding.com/sketch -->
    <title>Tarieven</title>
    <desc>Created with Sketch.</desc>
    <defs></defs>
    <g id="Icons" stroke="none" stroke-width="1" fill="none" fill-rule="evenodd">
        <g id="Tarieven" fill-rule="nonzero" fill="#000000">
            <path d="M33.3333333,43.0555556 C26.3611111,43.0555556 20.3333333,39.1111111 17.3333333,33.3333333 L33.3333333,33.3333333 L33.3333333,27.7777778 L15.5,27.7777778 C15.3611111,26.8611111 15.2777778,25.9444444 15.2777778,25 C15.2777778,24.0555556 15.3611111,23.1388889 15.5,22.2222222 L33.3333333,22.2222222 L33.3333333,16.6666667 L17.3333333,16.6666667 C20.3333333,10.8888889 26.3888889,6.94444444 33.3333333,6.94444444 C37.8055556,6.94444444 41.9166667,8.58333333 45.0833333,11.3055556 L50,6.38888889 C45.5833333,2.41666667 39.7222222,0 33.3333333,0 C22.4444444,0 13.2222222,6.97222222 9.77777778,16.6666667 L0,16.6666667 L0,22.2222222 L8.5,22.2222222 C8.38888889,23.1388889 8.33333333,24.0555556 8.33333333,25 C8.33333333,25.9444444 8.38888889,26.8611111 8.5,27.7777778 L0,27.7777778 L0,33.3333333 L9.77777778,33.3333333 C13.2222222,43.0277778 22.4444444,50 33.3333333,50 C39.75,50 45.5833333,47.5833333 50,43.6111111 L45.0555556,38.6944444 C41.9166667,41.4166667 37.8333333,43.0555556 33.3333333,43.0555556 Z" id="Shape"></path>
        </g>
    </g>
</svg>