<?xml version="1.0" encoding="UTF-8"?>
<svg width="50px" height="50px" viewBox="0 0 50 50" version="1.1" xmlns="http://www.w3.org/2000/svg" xmlns:xlink="http://www.w3.org/1999/xlink">
    <!-- Generator: Sketch 47.1 (45422) - http://www.bohemiancoding.com/sketch -->
    <title>Twitter</title>
    <desc>Created with Sketch.</desc>
    <defs></defs>
    <g id="Icons" stroke="none" stroke-width="1" fill="none" fill-rule="evenodd">
        <g id="Twitter" fill-rule="nonzero" fill="#4A4A4A">
            <path d="M25,50 C11.1928813,50 0,38.8071188 0,25 C0,11.1928813 11.1928813,0 25,0 C38.8071188,0 50,11.1928813 50,25 C50,38.8071188 38.8071188,50 25,50 Z M21.5861429,34.9343998 C30.3462857,34.9343998 35.1377143,27.6766855 35.1377143,21.3828284 C35.1377143,21.1766855 35.1377143,20.9714713 35.1237857,20.7671855 C36.0559148,20.0929598 36.8605443,19.258145 37.5,18.3018284 C36.6307448,18.6870014 35.7086271,18.9395979 34.7644286,19.0511855 C35.7586909,18.4559546 36.5028289,17.5197595 36.8583571,16.4168284 C35.923432,16.9716083 34.9006,17.3625896 33.834,17.5728998 C32.3576482,16.0030516 30.0117395,15.6188258 28.1117243,16.635674 C26.2117093,17.6525223 25.2301125,19.8175595 25.7173571,21.916757 C21.8878318,21.7247745 18.3198704,19.9159857 15.9014286,16.9405427 C14.6372926,19.1167843 15.2829888,21.9008407 17.376,23.2984713 C16.6180454,23.2760068 15.8766166,23.0715405 15.2142857,22.7023284 C15.2142857,22.7218284 15.2142857,22.742257 15.2142857,22.7626855 C15.2149061,25.0298789 16.8130549,26.9826111 19.0353571,27.4315427 C18.3341646,27.6227727 17.5984677,27.6507266 16.8847857,27.513257 C17.5087374,29.4534354 19.2968193,30.7825563 21.3345,30.8208284 C19.6479682,32.1463009 17.5645553,32.865847 15.4195,32.8636855 C15.0405533,32.862958 14.6619752,32.8400139 14.2857143,32.7949713 C16.4638048,34.192728 18.9981339,34.934137 21.5861429,34.9306855 L21.5861429,34.9343998 Z" id="path-1"></path>
        </g>
    </g>
</svg>