<?xml version="1.0" encoding="UTF-8"?>
<svg width="50px" height="50px" viewBox="0 0 50 50" version="1.1" xmlns="http://www.w3.org/2000/svg" xmlns:xlink="http://www.w3.org/1999/xlink">
    <!-- Generator: Sketch 47.1 (45422) - http://www.bohemiancoding.com/sketch -->
    <title>verleng</title>
    <desc>Created with Sketch.</desc>
    <defs></defs>
    <g id="Icons" stroke="none" stroke-width="1" fill="none" fill-rule="evenodd">
        <g id="verleng" fill-rule="nonzero" fill="#000000">
            <path d="M36.7647059,24.1176471 L36.7647059,17.6470588 L28.4926471,25.7352941 L36.7647059,33.8235294 L36.7647059,27.3529412 C42.2408088,27.3529412 46.6911765,31.7044118 46.6911765,37.0588235 C46.6911765,42.4132353 42.2408088,46.7647059 36.7647059,46.7647059 C31.2886029,46.7647059 26.8382353,42.4132353 26.8382353,37.0588235 L23.5294118,37.0588235 C23.5294118,44.2088235 29.4522059,50 36.7647059,50 C44.0772059,50 50,44.2088235 50,37.0588235 C50,29.9088235 44.0772059,24.1176471 36.7647059,24.1176471 Z M35.2941176,11.7647059 L0,11.7647059 L0,17.6470588 L35.2941176,17.6470588 L35.2941176,11.7647059 Z M35.2941176,0 L0,0 L0,5.88235294 L35.2941176,5.88235294 L35.2941176,0 Z M0,29.4117647 L23.5294118,29.4117647 L23.5294118,23.5294118 L0,23.5294118 L0,29.4117647 Z" id="Shape"></path>
        </g>
    </g>
</svg>