<?xml version="1.0" encoding="UTF-8"?>
<svg width="50px" height="50px" viewBox="0 0 50 50" version="1.1" xmlns="http://www.w3.org/2000/svg" xmlns:xlink="http://www.w3.org/1999/xlink">
    <!-- Generator: Sketch 47.1 (45422) - http://www.bohemiancoding.com/sketch -->
    <title>vervang</title>
    <desc>Created with Sketch.</desc>
    <defs></defs>
    <g id="Icons" stroke="none" stroke-width="1" fill="none" fill-rule="evenodd">
        <g id="vervang" fill-rule="nonzero" fill="#333333">
            <path d="M25.1818182,11.1700226 L25.1818182,17.8720362 L34.2727273,8.93601811 L25.1818182,0 L25.1818182,6.70201358 C15.1363636,6.70201358 7,14.6997498 7,24.5740498 C7,28.0814369 8.04545455,31.3430835 9.81818182,34.0909091 L13.1363636,30.8292625 C12.1136364,28.9750387 11.5454545,26.8303944 11.5454545,24.5740498 C11.5454545,17.1794948 17.6590909,11.1700226 25.1818182,11.1700226 Z M40.5454545,15.9090909 L37.2272727,19.1707375 C38.2272727,21.0473013 38.8181818,23.1696056 38.8181818,25.4259502 C38.8181818,32.8205052 32.7045455,38.8299774 25.1818182,38.8299774 L25.1818182,32.1279638 L16.0909091,41.0639819 L25.1818182,50 L25.1818182,43.2979864 C35.2272727,43.2979864 43.3636364,35.3002502 43.3636364,25.4259502 C43.3636364,21.9185631 42.3181818,18.6569165 40.5454545,15.9090909 L40.5454545,15.9090909 Z" id="Shape"></path>
        </g>
    </g>
</svg>