<?xml version="1.0" encoding="UTF-8"?>
<svg width="50px" height="50px" viewBox="0 0 50 50" version="1.1" xmlns="http://www.w3.org/2000/svg" xmlns:xlink="http://www.w3.org/1999/xlink">
    <!-- Generator: Sketch 47.1 (45422) - http://www.bohemiancoding.com/sketch -->
    <title>youtube</title>
    <desc>Created with Sketch.</desc>
    <defs></defs>
    <g id="Icons" stroke="none" stroke-width="1" fill="none" fill-rule="evenodd">
        <g id="youtube" fill-rule="nonzero" fill="#4A4A4A">
            <g id="Group">
                <path d="M25,50 C11.1928813,50 0,38.8071188 0,25 C0,11.1928813 11.1928813,0 25,0 C38.8071188,0 50,11.1928813 50,25 C50,38.8071188 38.8071188,50 25,50 Z M39.0039663,20.103945 C39.0039663,20.103945 38.7423993,18.2725109 37.9396666,17.4660077 C36.9216521,16.4074868 35.7805598,16.402231 35.2572688,16.3402803 C31.5110166,16.0714286 25.8914418,16.0714286 25.8914418,16.0714286 L25.879805,16.0714286 C25.879805,16.0714286 20.2603613,16.0714286 16.5139782,16.3402803 C15.9906608,16.402231 14.8499878,16.4074868 13.8316064,17.4660077 C13.0289261,18.2725109 12.7677261,20.103945 12.7677261,20.103945 C12.7677261,20.103945 12.5,22.254655 12.5,24.4053391 L12.5,26.4216102 C12.5,28.5722682 12.7677261,30.7229523 12.7677261,30.7229523 C12.7677261,30.7229523 13.0289261,32.5544123 13.8316064,33.3609155 C14.8499878,34.4194625 16.1877009,34.3859764 16.7835127,34.4969204 C18.9252429,34.7008032 25.8856496,34.7638987 25.8856496,34.7638987 C25.8856496,34.7638987 31.5110166,34.7554946 35.2572688,34.4866689 C35.7805598,34.4246923 36.9216521,34.4194625 37.9396666,33.3609155 C38.7423993,32.5544123 39.0039663,30.7229523 39.0039663,30.7229523 C39.0039663,30.7229523 39.2712993,28.5722682 39.2712993,26.4216102 L39.2712993,24.4053391 C39.2712993,22.254655 39.0039663,20.103945 39.0039663,20.103945 Z" id="path-1"></path>
                <polygon id="Path" points="23.12182 28.8649532 23.1205882 21.3975713 30.3543036 25.1442716"></polygon>
                <polyline id="Path" points="29.4642945 25.6028521 23.1205882 21.3975713 30.3543036 25.1442716 29.4642945 25.6028521"></polyline>
            </g>
        </g>
    </g>
</svg>