<?xml version="1.0" encoding="UTF-8"?><!DOCTYPE svg PUBLIC "-//W3C//DTD SVG 1.1//EN" "http://www.w3.org/Graphics/SVG/1.1/DTD/svg11.dtd"><svg xmlns="http://www.w3.org/2000/svg"><symbol id="arrow" viewBox="0 0 50 50"><title>arrow</title><path d="M35.683 28.641H0V21.38h36.516L22.27 7.135 27.406 2l20.027 20.026L50 24.594 27.406 47.187l-5.135-5.135 13.412-13.41z"/></symbol><symbol id="betalinglevering" viewBox="0 0 50 50"><title>Betaling en levering</title><path d="M45 5H5C2.225 5 .025 7.225.025 10L0 40c0 2.775 2.225 5 5 5h40c2.775 0 5-2.225 5-5V10c0-2.775-2.225-5-5-5zm0 35H5V25h40v15zm0-25H5v-5h40v5z"/></symbol><symbol id="call" viewBox="0 0 50 50"><title>Call</title><path d="M25 50C11.193 50 0 38.807 0 25S11.193 0 25 0s25 11.193 25 25-11.193 25-25 25zm-6.405-26.44l2.62-2.62c.333-.333.428-.797.297-1.214a13.524 13.524 0 0 1-.679-4.25c0-.655-.535-1.19-1.19-1.19h-4.167c-.655 0-1.19.535-1.19 1.19 0 11.179 9.06 20.238 20.238 20.238.655 0 1.19-.535 1.19-1.19v-4.155c0-.655-.535-1.19-1.19-1.19a13.58 13.58 0 0 1-4.25-.679 1.184 1.184 0 0 0-1.214.286l-2.62 2.619a18.034 18.034 0 0 1-7.845-7.845z"/></symbol><symbol id="cart" viewBox="0 0 50 50"><title>Shopping cart</title><path d="M15 40c-2.75 0-4.975 2.25-4.975 5S12.25 50 15 50c2.75 0 5-2.25 5-5s-2.25-5-5-5zM0 0v5h5l9 18.975-3.375 6.125c-.4.7-.625 1.525-.625 2.4 0 2.75 2.25 5 5 5h30v-5H16.05a.619.619 0 0 1-.625-.625l.075-.3 2.25-4.075h18.625a4.976 4.976 0 0 0 4.375-2.575L49.7 8.7c.2-.35.3-.775.3-1.2C50 6.125 48.875 5 47.5 5H10.525l-2.35-5H0zm40 40c-2.75 0-4.975 2.25-4.975 5S37.25 50 40 50c2.75 0 5-2.25 5-5s-2.25-5-5-5z"/></symbol><symbol id="chat" viewBox="0 0 50 50"><title>Chat</title><path d="M25 50C11.193 50 0 38.807 0 25S11.193 0 25 0s25 11.193 25 25-11.193 25-25 25zm11-31.143h-2.286v10.286H18.857v2.286c0 .628.514 1.142 1.143 1.142h12.571l4.572 4.572V20c0-.629-.514-1.143-1.143-1.143zm-4.571 6.857V15.43c0-.629-.515-1.143-1.143-1.143H15.429c-.629 0-1.143.514-1.143 1.143v16l4.571-4.572h11.429c.628 0 1.143-.514 1.143-1.143z"/></symbol><symbol id="close" viewBox="0 0 50 50"><title>search</title><path d="M50 5.036L44.964 0 25 19.964 5.036 0 0 5.036 19.964 25 0 44.964 5.036 50 25 30.036 44.964 50 50 44.964 30.036 25z"/></symbol><symbol id="community" viewBox="0 0 50 50"><title>Community</title><path d="M25 0c13.806 0 25 11.194 25 25S38.806 50 25 50 0 38.806 0 25 11.194 0 25 0zm5 24.643a3.2 3.2 0 0 0 3.204-3.214A3.2 3.2 0 0 0 30 18.214a3.21 3.21 0 0 0-3.214 3.215A3.21 3.21 0 0 0 30 24.643zm-8.571 0a3.2 3.2 0 0 0 3.203-3.214 3.2 3.2 0 0 0-3.203-3.215 3.21 3.21 0 0 0-3.215 3.215 3.21 3.21 0 0 0 3.215 3.214zm0 2.143c-2.497 0-7.5 1.253-7.5 3.75v2.678h15v-2.678c0-2.497-5.004-3.75-7.5-3.75zm8.571 0c-.31 0-.664.021-1.04.053 1.244.9 2.111 2.111 2.111 3.697v2.678H37.5v-2.678c0-2.497-5.004-3.75-7.5-3.75z"/></symbol><symbol id="customer" viewBox="0 0 50 50"><title>customer</title><path d="M25 25c6.906 0 12.5-5.594 12.5-12.5S31.906 0 25 0 12.5 5.594 12.5 12.5 18.094 25 25 25zm0 6.25c-8.344 0-25 4.188-25 12.5V50h50v-6.25c0-8.313-16.656-12.5-25-12.5z"/></symbol><symbol id="extraaansluiten" viewBox="0 0 50 50"><title>extraaansluiten</title><path d="M25 0C11.2 0 0 11.2 0 25s11.2 25 25 25 25-11.2 25-25S38.8 0 25 0zm12.5 27.5h-10v10h-5v-10h-10v-5h10v-10h5v10h10v5z"/></symbol><symbol id="facebook" viewBox="0 0 50 50"><title>facebook</title><path d="M25 0C11.194 0 0 11.194 0 25s11.194 25 25 25 25-11.194 25-25S38.806 0 25 0zm6.25 16.667h-2.813c-1.12 0-1.354.46-1.354 1.62v2.546h4.167L30.815 25h-3.732v14.583h-6.25V25h-4.166v-4.167h4.166v-4.808c0-3.685 1.94-5.608 6.31-5.608h4.107v6.25z"/></symbol><symbol id="info" viewBox="0 0 50 50"><title>information</title><path d="M22.5 37.5h5v-15h-5v15zM25 0C11.2 0 0 11.2 0 25s11.2 25 25 25 25-11.2 25-25S38.8 0 25 0zm0 45C13.975 45 5 36.025 5 25S13.975 5 25 5s20 8.975 20 20-8.975 20-20 20zm-2.5-27.5h5v-5h-5v5z"/></symbol><symbol id="instagram" viewBox="0 0 50 50"><title>instagram</title><g><path d="M25 50C11.193 50 0 38.807 0 25S11.193 0 25 0s25 11.193 25 25-11.193 25-25 25zm.71-38.571c-3.879 0-4.365.016-5.888.086-1.52.069-2.559.31-3.467.663a7 7 0 0 0-2.53 1.648 7 7 0 0 0-1.647 2.529c-.353.908-.594 1.947-.663 3.467-.07 1.523-.086 2.01-.086 5.888s.016 4.365.086 5.888c.069 1.52.31 2.558.663 3.467a7 7 0 0 0 1.648 2.529 7.001 7.001 0 0 0 2.529 1.647c.908.353 1.947.595 3.467.664 1.523.07 2.01.086 5.888.086s4.365-.016 5.888-.086c1.52-.07 2.558-.31 3.467-.664a7.001 7.001 0 0 0 2.529-1.647 7.001 7.001 0 0 0 1.647-2.53c.353-.908.595-1.946.664-3.466.07-1.523.086-2.01.086-5.888 0-3.879-.016-4.365-.086-5.888-.07-1.52-.31-2.559-.664-3.467a7.001 7.001 0 0 0-1.647-2.53 7 7 0 0 0-2.53-1.647c-.908-.353-1.946-.594-3.466-.663-1.523-.07-2.01-.086-5.888-.086z"/><path d="M25.71 14.002c3.813 0 4.265.014 5.77.083 1.393.064 2.15.296 2.652.492.667.259 1.143.568 1.642 1.068.5.5.81.976 1.069 1.642.195.503.428 1.26.492 2.652.068 1.506.083 1.958.083 5.77 0 3.814-.015 4.266-.083 5.772-.064 1.392-.297 2.148-.492 2.651a4.424 4.424 0 0 1-1.069 1.642c-.5.5-.975.81-1.642 1.069-.503.195-1.259.428-2.651.492-1.506.068-1.958.083-5.771.083-3.814 0-4.265-.015-5.771-.083-1.392-.064-2.149-.297-2.652-.492a4.424 4.424 0 0 1-1.642-1.069c-.5-.5-.81-.975-1.068-1.642-.196-.503-.428-1.259-.492-2.651-.069-1.506-.083-1.958-.083-5.771 0-3.813.014-4.265.083-5.771.064-1.392.296-2.149.492-2.652a4.424 4.424 0 0 1 1.068-1.642c.5-.5.976-.81 1.642-1.068.503-.196 1.26-.428 2.652-.492 1.506-.069 1.958-.083 5.77-.083zm.004 4.353a7.36 7.36 0 1 0 0 14.719 7.36 7.36 0 0 0 0-14.719zm9.38-.289a1.732 1.732 0 1 0-3.463 0 1.732 1.732 0 0 0 3.463 0z"/><path d="M25.714 30.491a4.777 4.777 0 1 1 0-9.554 4.777 4.777 0 0 1 0 9.554z"/></g></symbol><symbol id="mobile" viewBox="0 0 50 50"><title>mobile</title><path d="M36.273.023L13.545 0A4.559 4.559 0 0 0 9 4.545v40.91C9 47.955 11.045 50 13.545 50h22.728c2.5 0 4.545-2.045 4.545-4.545V4.545c0-2.5-2.045-4.522-4.545-4.522zm0 40.886H13.545V9.091h22.728v31.818z"/></symbol><symbol id="new" viewBox="0 0 50 50"><title>new</title><path d="M50 28.571H28.571V50H21.43V28.571H0V21.43h21.429V0h7.142v21.429H50z"/></symbol><symbol id="nummerbehoud" viewBox="0 0 50 50"><title>Nummberbehoud</title><path d="M45.833 6H4.167A4.179 4.179 0 0 0 0 10.167v29.166A4.179 4.179 0 0 0 4.167 43.5h41.666c2.292 0 4.146-1.875 4.146-4.167L50 10.167A4.179 4.179 0 0 0 45.833 6zm-29.166 6.25a6.242 6.242 0 0 1 6.25 6.25 6.242 6.242 0 0 1-6.25 6.25 6.242 6.242 0 0 1-6.25-6.25 6.242 6.242 0 0 1 6.25-6.25zm12.5 25h-25v-2.083c0-4.167 8.333-6.459 12.5-6.459 4.166 0 12.5 2.292 12.5 6.459v2.083zm8.02-8.333h3.417l3.146 4.166-4.146 4.146a15.65 15.65 0 0 1-5.687-8.312 15.364 15.364 0 0 1-.584-4.167c0-1.438.209-2.833.584-4.167a15.57 15.57 0 0 1 5.687-8.312l4.146 4.146-3.146 4.166h-3.416a12.602 12.602 0 0 0-.73 4.167c0 1.458.271 2.854.73 4.167z"/></symbol><symbol id="order" viewBox="0 0 50 50"><title>order</title><path d="M11.083 22.667L0 33.777 11.083 44.89v-8.333h19.473V31H11.083v-8.333zM50 17.11L38.917 6v8.333H19.444v5.556h19.473v8.333L50 17.112z"/></symbol><symbol id="search" viewBox="0 0 50 50"><title>search</title><path d="M35.735 31.447h-2.259l-.8-.772a18.5 18.5 0 0 0 4.488-12.093C37.164 8.319 28.845 0 18.582 0S0 8.319 0 18.582s8.319 18.582 18.582 18.582a18.5 18.5 0 0 0 12.093-4.488l.772.8v2.259L45.74 50 50 45.74 35.735 31.447zm-17.153 0A12.847 12.847 0 0 1 5.718 18.582 12.847 12.847 0 0 1 18.582 5.718a12.847 12.847 0 0 1 12.865 12.864 12.847 12.847 0 0 1-12.865 12.865z"/></symbol><symbol id="shop" viewBox="0 0 50 50"><title>shop</title><path d="M47.222 3H2.778v5.556h44.444V3zM50 30.778v-5.556l-2.778-13.889H2.778L0 25.223v5.555h2.778v16.666h27.778V30.778h11.11v16.666h5.556V30.778H50zm-25 11.11H8.333v-11.11H25v11.11z"/></symbol><symbol id="simonly" viewBox="0 0 50 50"><title>simonly</title><path d="M45 44.975c2.75 0 5-2.225 5-4.975V20L35 5H5c-2.75 0-5 2.25-5 5v30.025C0 42.775 2.25 45 5 45l40-.025zM7.5 17.5v-5h5v5h-5zm0 20v-5h5v5h-5zm10-20v-5h10v5h-10zm-10 10v-5h10v5h-10zm15 0v-5h5v5h-5zm-5 10v-5h10v5h-10z"/></symbol><symbol id="tarieven" viewBox="0 0 50 50"><title>Tarieven</title><path d="M33.333 43.056c-6.972 0-13-3.945-16-9.723h16v-5.555H15.5A18.428 18.428 0 0 1 15.278 25c0-.944.083-1.861.222-2.778h17.833v-5.555h-16c3-5.778 9.056-9.723 16-9.723 4.473 0 8.584 1.64 11.75 4.362L50 6.389A24.875 24.875 0 0 0 33.333 0C22.444 0 13.223 6.972 9.778 16.667H0v5.555h8.5A22.95 22.95 0 0 0 8.333 25c0 .944.056 1.861.167 2.778H0v5.555h9.778C13.222 43.028 22.444 50 33.333 50c6.417 0 12.25-2.417 16.667-6.389l-4.944-4.917a17.793 17.793 0 0 1-11.723 4.362z"/></symbol><symbol id="toestelspecificaties" viewBox="0 0 50 50"><title>Toestelspecificaties</title><path d="M36.273.023L13.545 0A4.559 4.559 0 0 0 9 4.545v40.91C9 47.955 11.045 50 13.545 50h22.728c2.5 0 4.545-2.045 4.545-4.545V4.545c0-2.5-2.045-4.522-4.545-4.522zm0 40.886H13.545V9.091h22.728v31.818z"/></symbol><symbol id="twitter" viewBox="0 0 50 50"><title>Twitter</title><path d="M25 50C11.193 50 0 38.807 0 25S11.193 0 25 0s25 11.193 25 25-11.193 25-25 25zm-3.414-15.066c8.76 0 13.552-7.257 13.552-13.551 0-.206 0-.412-.014-.616a9.69 9.69 0 0 0 2.376-2.465 9.507 9.507 0 0 1-2.736.75 4.78 4.78 0 0 0 2.094-2.635 9.545 9.545 0 0 1-3.024 1.156 4.767 4.767 0 0 0-8.117 4.344c-3.83-.192-7.397-2.001-9.816-4.976a4.766 4.766 0 0 0 1.475 6.357 4.727 4.727 0 0 1-2.162-.596v.06a4.765 4.765 0 0 0 3.821 4.67 4.755 4.755 0 0 1-2.15.081 4.768 4.768 0 0 0 4.45 3.308 9.557 9.557 0 0 1-7.05 1.974 13.484 13.484 0 0 0 7.301 2.136v.003z"/></symbol><symbol id="verleng" viewBox="0 0 50 50"><title>verleng</title><path d="M36.765 24.118v-6.47l-8.272 8.087 8.272 8.089v-6.471c5.476 0 9.926 4.351 9.926 9.706 0 5.354-4.45 9.706-9.926 9.706s-9.927-4.352-9.927-9.706H23.53C23.53 44.209 29.452 50 36.765 50 44.077 50 50 44.209 50 37.059s-5.923-12.941-13.235-12.941zm-1.47-12.353H0v5.882h35.294v-5.882zm0-11.765H0v5.882h35.294V0zM0 29.412h23.53v-5.883H0v5.883z"/></symbol><symbol id="vervang" viewBox="0 0 50 50"><title>vervang</title><path d="M25.182 11.17v6.702l9.09-8.936L25.183 0v6.702C15.136 6.702 7 14.7 7 24.574c0 3.507 1.045 6.77 2.818 9.517l3.318-3.262a12.938 12.938 0 0 1-1.59-6.255c0-7.395 6.113-13.404 13.636-13.404zm15.363 4.74l-3.318 3.26c1 1.877 1.591 4 1.591 6.256 0 7.395-6.113 13.404-13.636 13.404v-6.702l-9.091 8.936L25.18 50v-6.702c10.046 0 18.183-7.998 18.183-17.872 0-3.507-1.046-6.77-2.819-9.517z"/></symbol><symbol id="youtube" viewBox="0 0 50 50"><title>youtube</title><g><path d="M25 50C11.193 50 0 38.807 0 25S11.193 0 25 0s25 11.193 25 25-11.193 25-25 25zm14.004-29.896s-.262-1.831-1.064-2.638c-1.018-1.059-2.16-1.064-2.683-1.126-3.746-.269-9.366-.269-9.366-.269h-.011s-5.62 0-9.366.27c-.523.061-1.664.066-2.682 1.125-.803.807-1.064 2.638-1.064 2.638s-.268 2.15-.268 4.301v2.017c0 2.15.268 4.301.268 4.301s.26 1.831 1.064 2.638c1.018 1.058 2.356 1.025 2.952 1.136 2.141.204 9.102.267 9.102.267s5.625-.009 9.371-.277c.524-.062 1.665-.068 2.683-1.126.802-.807 1.064-2.638 1.064-2.638s.267-2.15.267-4.301v-2.017c0-2.15-.267-4.301-.267-4.301z"/><path d="M23.122 28.865l-.001-7.467 7.233 3.746z"/><path d="M29.464 25.603l-6.343-4.205 7.233 3.746-.89.459"/></g></symbol></svg>